<svg xmlns="http://www.w3.org/2000/svg" viewBox="0 0 64 64" role="img" aria-label="Parapente">
  <defs>
    <linearGradient id="bg" x1="0" y1="0" x2="1" y2="1">
      <stop offset="0%" stop-color="#2c3e50"/>
      <stop offset="100%" stop-color="#16222e"/>
    </linearGradient>
  </defs>
  <rect width="64" height="64" rx="14" fill="url(#bg)"/>
  <path d="M14,26 Q20,16 32,17 Q44,16 50,26 Q32,33 14,26 Z" fill="#e6e9ec"/>
  <path d="M14,26 L17,26 L20,23 L23,26 L26,23 L29,26 L32,23 L35,26 L38,23 L41,26 L44,23 L47,26 L50,26"
        fill="none" stroke="#16222e" stroke-width="1" opacity="0.35"/>
  <g stroke="#e08a2c" stroke-width="1.6" opacity="0.95">
    <line x1="17" y1="26" x2="31" y2="44"/>
    <line x1="32" y1="23" x2="32" y2="44"/>
    <line x1="47" y1="26" x2="33" y2="44"/>
  </g>
  <circle cx="32" cy="46" r="3.4" fill="#e08a2c"/>
</svg>
